# Blender v2.78 (sub 0) OBJ File: 'doorframe.blend'
# www.blender.org
mtllib doorframe.mtl
o Cube
v 0.600000 -1.000000 -0.100000
v 0.600000 -1.000000 0.100000
v -0.600000 -1.000000 0.100000
v -0.600000 -1.000000 -0.100000
v 0.600000 1.200000 -0.100000
v 0.600000 1.200000 0.100000
v -0.600000 1.200000 0.100000
v -0.600000 1.200000 -0.100000
v 0.600000 1.090000 -0.100000
v 0.600000 1.090000 0.100000
v -0.600000 1.090000 0.100000
v -0.600000 1.090000 -0.100000
v 0.480000 -1.000000 -0.100000
v 0.480000 -1.000000 0.100000
v 0.480000 1.200000 -0.100000
v 0.480000 1.200000 0.100000
v 0.480000 1.090000 -0.100000
v 0.480000 1.090000 0.100000
v -0.492000 -1.000000 -0.100000
v -0.492000 -1.000000 0.100000
v -0.492000 1.200000 -0.100000
v -0.492000 1.200000 0.100000
v -0.492000 1.090000 -0.100000
v -0.492000 1.090000 0.100000
vt 0.0000 0.0000
vt 1.0000 0.0000
vt 1.0000 1.0000
vt 0.0000 1.0000
vt 0.0000 0.0000
vt 1.0000 0.0000
vt 1.0000 1.0000
vt 0.0000 1.0000
vt 0.0000 0.0000
vt 1.0000 0.0000
vt 1.0000 1.0000
vt 0.0000 1.0000
vt 0.0000 0.0000
vt 1.0000 0.0000
vt 0.0000 1.0000
vt 0.0000 0.0000
vt 1.0000 0.0000
vt 1.0000 1.0000
vt 0.0000 1.0000
vt 0.0000 0.0000
vt 1.0000 0.0000
vt 1.0000 1.0000
vt 1.0000 0.0000
vt 1.0000 1.0000
vt 0.0000 1.0000
vt 0.0000 0.0000
vt 1.0000 0.0000
vt 0.0000 0.0000
vt 1.0000 0.0000
vt 1.0000 1.0000
vt 0.0000 1.0000
vt 0.0000 0.0000
vt 1.0000 0.0000
vt 1.0000 1.0000
vt 0.0000 1.0000
vt 0.0000 0.0000
vt 1.0000 0.0000
vt 1.0000 1.0000
vt 0.0000 1.0000
vt 0.0000 0.0000
vt 1.0000 1.0000
vt 0.0000 1.0000
vt 1.0000 0.0000
vt 1.0000 1.0000
vt 0.0000 1.0000
vt 0.0000 0.0000
vt 1.0000 0.0000
vt 1.0000 1.0000
vt 0.0000 1.0000
vt 1.0000 0.0000
vt 0.0000 1.0000
vt 1.0000 0.0000
vt 1.0000 1.0000
vt 0.0000 1.0000
vt 0.0000 0.0000
vt 1.0000 0.0000
vt 1.0000 1.0000
vt 0.0000 1.0000
vt 0.0000 0.0000
vt 1.0000 0.0000
vt 1.0000 1.0000
vt 0.0000 1.0000
vt 1.0000 0.0000
vt 0.0000 1.0000
vt 1.0000 1.0000
vt 0.0000 1.0000
vn 0.0000 -1.0000 0.0000
vn 0.0000 1.0000 0.0000
vn 1.0000 0.0000 0.0000
vn -0.0000 0.0000 1.0000
vn -1.0000 0.0000 -0.0000
vn 0.0000 0.0000 -1.0000
usemtl Material
s off
f 19/1/1 20/2/1 3/3/1 4/4/1
f 21/5/2 8/6/2 7/7/2 22/8/2
f 9/9/3 5/10/3 6/11/3 10/12/3
f 24/13/4 22/14/4 7/7/4 11/15/4
f 11/16/5 7/17/5 8/18/5 12/19/5
f 23/20/6 19/21/6 4/22/6 12/19/6
f 21/5/6 23/23/6 12/24/6 8/25/6
f 3/26/5 11/27/5 12/24/5 4/4/5
f 20/28/4 24/29/4 11/30/4 3/31/4
f 1/32/3 9/33/3 10/34/3 2/35/3
f 2/36/4 10/37/4 18/38/4 14/39/4
f 5/40/6 9/33/6 17/41/6 15/42/6
f 9/9/6 1/43/6 13/44/6 17/45/6
f 10/46/4 6/47/4 16/48/4 18/49/4
f 5/40/2 15/50/2 16/48/2 6/51/2
f 1/32/1 2/52/1 14/53/1 13/54/1
f 15/55/6 17/56/6 23/57/6 21/58/6
f 18/59/4 16/60/4 22/61/4 24/62/4
f 15/55/2 21/63/2 22/61/2 16/64/2
f 24/13/3 20/2/3 19/65/3 23/66/3
f 23/20/1 17/56/1 18/38/1 24/62/1
f 18/59/5 17/56/5 13/44/5 14/39/5
