# Blender v2.78 (sub 0) OBJ File: 'flipper.blend'
# www.blender.org
mtllib flipper.mtl
o Cylinder
v 0.000000 -0.765435 -0.967369
v 0.000000 0.765435 -0.967369
v 0.207928 -0.765435 -0.948782
v 0.207928 0.765435 -0.948782
v 5.012155 -0.466757 -0.544992
v 5.012155 0.466757 -0.544992
v 5.124518 -0.466757 -0.490480
v 5.124518 0.466757 -0.490480
v 5.223005 -0.466757 -0.417119
v 5.223005 0.466757 -0.417119
v 5.303831 -0.466757 -0.327728
v 5.303831 0.466757 -0.327728
v 5.363889 -0.466757 -0.225743
v 5.363889 0.466757 -0.225743
v 5.400873 -0.466757 -0.115083
v 5.400873 0.466757 -0.115083
v 5.413361 -0.466757 -0.000000
v 5.413361 0.466757 -0.000000
v 5.400873 -0.466757 0.115083
v 5.400873 0.466757 0.115083
v 5.363889 -0.466757 0.225743
v 5.363889 0.466757 0.225743
v 5.303831 -0.466757 0.327728
v 5.303831 0.466757 0.327728
v 5.223005 -0.466757 0.417119
v 5.223005 0.466757 0.417119
v 5.124518 -0.466757 0.490480
v 5.124518 0.466757 0.490480
v 5.012155 -0.466757 0.544992
v 5.012155 0.466757 0.544992
v 0.207927 -0.765435 0.948782
v 0.207927 0.765435 0.948782
v -0.000000 -0.765435 0.967369
v -0.000000 0.765435 0.967369
v -0.207928 -0.765435 0.948782
v -0.207928 0.765435 0.948782
v -0.407865 -0.765435 0.893733
v -0.407865 0.765435 0.893733
v -0.592128 -0.765435 0.804338
v -0.592128 0.765435 0.804338
v -0.753636 -0.765435 0.684033
v -0.753636 0.765435 0.684033
v -0.886182 -0.765435 0.537441
v -0.886182 0.765435 0.537441
v -0.984673 -0.765435 0.370196
v -0.984673 0.765435 0.370196
v -1.045323 -0.765435 0.188724
v -1.045323 0.765435 0.188724
v -1.065802 -0.765435 -0.000001
v -1.065802 0.765435 -0.000001
v -1.045323 -0.765435 -0.188725
v -1.045323 0.765435 -0.188725
v -0.984672 -0.765435 -0.370197
v -0.984672 0.765435 -0.370197
v -0.886181 -0.765435 -0.537443
v -0.886181 0.765435 -0.537443
v -0.753635 -0.765435 -0.684034
v -0.753635 0.765435 -0.684034
v -0.592127 -0.765435 -0.804339
v -0.592127 0.765435 -0.804339
v -0.407863 -0.765435 -0.893733
v -0.407863 0.765435 -0.893733
v -0.207926 -0.765435 -0.948782
v -0.207926 0.765435 -0.948782
vt 0.3479 0.5446
vt 0.1143 0.8204
vt 0.0925 0.7788
vt 0.3714 0.5582
vt 0.9932 0.4161
vt 0.8064 0.3669
vt 0.9964 0.3861
vt 0.8189 0.3494
vt 0.9987 0.3571
vt 0.8259 0.3335
vt 0.9999 0.3281
vt 0.8297 0.3188
vt 0.9999 0.2990
vt 0.8315 0.3036
vt 0.9986 0.2701
vt 0.8315 0.2880
vt 0.9961 0.2413
vt 0.8300 0.2724
vt 0.9922 0.2128
vt 0.8270 0.2570
vt 0.9871 0.1847
vt 0.8226 0.2421
vt 0.9807 0.1570
vt 0.8169 0.2281
vt 0.9733 0.1298
vt 0.8097 0.2154
vt 0.9648 0.1032
vt 0.8011 0.2047
vt 0.9554 0.0772
vt 0.7912 0.1966
vt 0.1047 0.0001
vt 0.3672 0.2388
vt 0.0852 0.0416
vt 0.3428 0.2551
vt 0.0669 0.0845
vt 0.3212 0.2729
vt 0.0503 0.1282
vt 0.3035 0.2916
vt 0.0357 0.1728
vt 0.2892 0.3108
vt 0.0233 0.2183
vt 0.2778 0.3303
vt 0.0133 0.2648
vt 0.2684 0.3491
vt 0.0060 0.3122
vt 0.2618 0.3671
vt 0.0015 0.3604
vt 0.2581 0.3856
vt 0.0001 0.4090
vt 0.2573 0.4041
vt 0.0018 0.4578
vt 0.2592 0.4225
vt 0.0066 0.5063
vt 0.2637 0.4408
vt 0.0144 0.5543
vt 0.2709 0.4588
vt 0.0251 0.6014
vt 0.2807 0.4768
vt 0.0385 0.6475
vt 0.2934 0.4944
vt 0.0544 0.6924
vt 0.3275 0.0533
vt 0.5519 0.0000
vt 0.7501 0.0705
vt 0.3095 0.5115
vt 0.0725 0.7362
vt 0.3271 0.5288
vt 0.1812 0.4372
vt 0.0001 0.1985
vt 0.2110 0.0082
vt 0.7497 0.8185
vt 0.7501 0.8508
vt 0.7361 0.8826
vt 0.7082 0.9126
vt 0.6675 0.9396
vt 0.6156 0.9626
vt 0.5545 0.9808
vt 0.4864 0.9933
vt 0.4141 0.9998
vt 0.3402 1.0000
vt 0.2677 0.9939
vt 0.1994 0.9816
vt 0.0140 0.7885
vt 0.1377 0.9638
vt 0.0852 0.9410
vt 0.0439 0.9142
vt 0.0152 0.8844
vt 0.0004 0.8527
vt 0.0000 0.8203
vt 0.3523 0.0368
vt 0.3840 0.0228
vt 0.4213 0.0117
vt 0.4628 0.0041
vt 0.5069 0.0001
vt 0.5961 0.0037
vt 0.6378 0.0112
vt 0.6754 0.0221
vt 0.7074 0.0359
vt 0.7326 0.0523
vt 0.1470 0.0003
vt 0.1793 0.0001
vt 0.9467 0.1910
vt 0.9632 0.2055
vt 0.9772 0.2239
vt 0.9882 0.2457
vt 0.9959 0.2699
vt 0.9998 0.2956
vt 0.9999 0.3218
vt 0.9962 0.3476
vt 0.9888 0.3719
vt 0.9296 0.4374
vt 0.9779 0.3938
vt 0.9641 0.4125
vt 0.9478 0.4272
vt 0.1489 0.4374
vt 0.1172 0.4293
vt 0.0873 0.4130
vt 0.0603 0.3893
vt 0.0374 0.3591
vt 0.0193 0.3234
vt 0.0067 0.2837
vt 0.0003 0.2416
vt 0.0062 0.1562
vt 0.0184 0.1164
vt 0.0361 0.0804
vt 0.0588 0.0498
vt 0.0856 0.0257
vt 0.1153 0.0090
vn 0.0890 0.0000 -0.9960
vn 0.0838 0.0000 -0.9965
vn 0.4365 0.0000 -0.8997
vn 0.5974 0.0000 -0.8020
vn 0.7417 0.0000 -0.6707
vn 0.8617 0.0000 -0.5074
vn 0.9484 0.0000 -0.3170
vn 0.9942 0.0000 -0.1079
vn 0.9942 0.0000 0.1079
vn 0.9484 0.0000 0.3170
vn 0.8617 0.0000 0.5074
vn 0.7417 0.0000 0.6707
vn 0.5974 0.0000 0.8020
vn 0.4365 0.0000 0.8997
vn 0.0838 0.0000 0.9965
vn 0.0890 0.0000 0.9960
vn -0.0890 0.0000 0.9960
vn -0.2655 0.0000 0.9641
vn -0.4365 0.0000 0.8997
vn -0.5974 0.0000 0.8020
vn -0.7417 0.0000 0.6707
vn -0.8617 0.0000 0.5074
vn -0.9484 0.0000 0.3170
vn -0.9942 0.0000 0.1079
vn -0.9942 0.0000 -0.1079
vn -0.9484 0.0000 -0.3170
vn -0.8617 0.0000 -0.5074
vn -0.7417 0.0000 -0.6707
vn -0.5974 0.0000 -0.8020
vn -0.4365 0.0000 -0.8997
vn 0.0000 1.0000 0.0000
vn -0.2655 0.0000 -0.9641
vn -0.0890 0.0000 -0.9960
vn 0.0000 -1.0000 0.0000
vn 0.0621 0.9981 0.0000
vn 0.0621 -0.9981 0.0000
usemtl Material.001
s off
f 2/1/1 3/2/1 1/3/1
f 4/4/2 5/5/2 3/2/2
f 6/6/3 7/7/3 5/5/3
f 8/8/4 9/9/4 7/7/4
f 10/10/5 11/11/5 9/9/5
f 12/12/6 13/13/6 11/11/6
f 14/14/7 15/15/7 13/13/7
f 16/16/8 17/17/8 15/15/8
f 18/18/9 19/19/9 17/17/9
f 20/20/10 21/21/10 19/19/10
f 22/22/11 23/23/11 21/21/11
f 24/24/12 25/25/12 23/23/12
f 26/26/13 27/27/13 25/25/13
f 28/28/14 29/29/14 27/27/14
f 30/30/15 31/31/15 29/29/15
f 32/32/16 33/33/16 31/31/16
f 34/34/17 35/35/17 33/33/17
f 36/36/18 37/37/18 35/35/18
f 38/38/19 39/39/19 37/37/19
f 40/40/20 41/41/20 39/39/20
f 42/42/21 43/43/21 41/41/21
f 44/44/22 45/45/22 43/43/22
f 46/46/23 47/47/23 45/45/23
f 48/48/24 49/49/24 47/47/24
f 50/50/25 51/51/25 49/49/25
f 52/52/26 53/53/26 51/51/26
f 54/54/27 55/55/27 53/53/27
f 56/56/28 57/57/28 55/55/28
f 58/58/29 59/59/29 57/57/29
f 60/60/30 61/61/30 59/59/30
f 30/62/31 18/63/31 6/64/31
f 62/65/32 63/66/32 61/61/32
f 64/67/33 1/3/33 63/66/33
f 31/68/34 49/69/34 3/70/34
f 2/1/1 4/4/1 3/2/1
f 4/4/2 6/6/2 5/5/2
f 6/6/3 8/8/3 7/7/3
f 8/8/4 10/10/4 9/9/4
f 10/10/5 12/12/5 11/11/5
f 12/12/6 14/14/6 13/13/6
f 14/14/7 16/16/7 15/15/7
f 16/16/8 18/18/8 17/17/8
f 18/18/9 20/20/9 19/19/9
f 20/20/10 22/22/10 21/21/10
f 22/22/11 24/24/11 23/23/11
f 24/24/12 26/26/12 25/25/12
f 26/26/13 28/28/13 27/27/13
f 28/28/14 30/30/14 29/29/14
f 30/30/15 32/32/15 31/31/15
f 32/32/16 34/34/16 33/33/16
f 34/34/17 36/36/17 35/35/17
f 36/36/18 38/38/18 37/37/18
f 38/38/19 40/40/19 39/39/19
f 40/40/20 42/42/20 41/41/20
f 42/42/21 44/44/21 43/43/21
f 44/44/22 46/46/22 45/45/22
f 46/46/23 48/48/23 47/47/23
f 48/48/24 50/50/24 49/49/24
f 50/50/25 52/52/25 51/51/25
f 52/52/26 54/54/26 53/53/26
f 54/54/27 56/56/27 55/55/27
f 56/56/28 58/58/28 57/57/28
f 58/58/29 60/60/29 59/59/29
f 60/60/30 62/65/30 61/61/30
f 4/71/31 2/72/31 64/73/31
f 64/73/31 62/74/31 4/71/31
f 60/75/31 58/76/31 4/71/31
f 56/77/31 54/78/31 4/71/31
f 52/79/31 50/80/31 4/71/31
f 48/81/31 46/82/31 32/83/31
f 44/84/31 42/85/31 32/83/31
f 40/86/31 38/87/31 32/83/31
f 36/88/31 34/89/31 32/83/31
f 32/83/35 30/62/35 4/71/35
f 28/90/31 26/91/31 30/62/31
f 24/92/31 22/93/31 30/62/31
f 20/94/31 18/63/31 30/62/31
f 16/95/31 14/96/31 6/64/31
f 12/97/31 10/98/31 6/64/31
f 8/99/31 6/64/31 10/98/31
f 4/71/31 62/74/31 60/75/31
f 58/76/31 56/77/31 4/71/31
f 50/80/31 48/81/31 32/83/31
f 42/85/31 40/86/31 32/83/31
f 36/88/31 32/83/31 38/87/31
f 26/91/31 24/92/31 30/62/31
f 18/63/31 16/95/31 6/64/31
f 12/97/31 6/64/31 14/96/31
f 4/71/31 54/78/31 52/79/31
f 46/82/31 44/84/31 32/83/31
f 30/62/35 6/64/35 4/71/35
f 20/94/31 30/62/31 22/93/31
f 4/71/31 50/80/31 32/83/31
f 62/65/32 64/67/32 63/66/32
f 64/67/33 2/1/33 1/3/33
f 63/100/34 1/101/34 3/70/34
f 3/70/36 5/102/36 31/68/36
f 7/103/34 9/104/34 5/102/34
f 11/105/34 13/106/34 5/102/34
f 15/107/34 17/108/34 5/102/34
f 19/109/34 21/110/34 29/111/34
f 23/112/34 25/113/34 29/111/34
f 27/114/34 29/111/34 25/113/34
f 31/68/34 33/115/34 35/116/34
f 35/116/34 37/117/34 31/68/34
f 39/118/34 41/119/34 31/68/34
f 43/120/34 45/121/34 31/68/34
f 47/122/34 49/69/34 31/68/34
f 51/123/34 53/124/34 3/70/34
f 55/125/34 57/126/34 3/70/34
f 59/127/34 61/128/34 3/70/34
f 63/100/34 3/70/34 61/128/34
f 9/104/34 11/105/34 5/102/34
f 17/108/34 19/109/34 29/111/34
f 23/112/34 29/111/34 21/110/34
f 31/68/34 37/117/34 39/118/34
f 41/119/34 43/120/34 31/68/34
f 49/69/34 51/123/34 3/70/34
f 57/126/34 59/127/34 3/70/34
f 5/102/36 29/111/36 31/68/36
f 15/107/34 5/102/34 13/106/34
f 31/68/34 45/121/34 47/122/34
f 53/124/34 55/125/34 3/70/34
f 17/108/34 29/111/34 5/102/34
